# xmcd CD database file generated by MAGIX-FreeDB-MP3_deluxe_17 v3.0beta1
#
# Track frame offsets:
#	150
#	12292
#	24759
#	38435
#	48337
#	58549
#	70181
#	82548
#	94705
#	106968
#	119208
#	131246
#	145192
#	157324
#	167589
#	177268
#
# Disc length: 2504
#
# Revision: 0
# Processed by: cddbd v1.5.2PL0 Copyright (c) Steve Scherf et al.
# Submitted via: MAGIX-FreeDB-MP3_deluxe_17 v3.0beta1
#
DISCID=cb09c610
DTITLE=Loretta Lynn - After The Fire Is Gone
DYEAR=1900
DGENRE=Country
TTITLE0=After The Fire Is Gone
TTITLE1=The Pill
TTITLE2=One's On The Way
TTITLE3=Mr. And Mrs. Used To Be
TTITLE4=I'm A Honky Tonk Girl
TTITLE5=Success
TTITLE6=Wings Upon Your Horns
TTITLE7=You Ain't Woman Enough
TTITLE8=You're Looking At Country
TTITLE9=Your Squaw Is On The Warpath
TTITLE10=Blue Kentucky Girl
TTITLE11=When The Tingle Becomes A Chil
TTITLE12=Fist City
TTITLE13=Don't Come Home A Drinkin' (Wi
TTITLE14=Coal Miner's Daughter
TTITLE15=Out Of My Head And Back In Bed
EXTD=
EXTT0=
EXTT1=
EXTT2=
EXTT3=
EXTT4=
EXTT5=
EXTT6=
EXTT7=
EXTT8=
EXTT9=
EXTT10=
EXTT11=
EXTT12=
EXTT13=
EXTT14=
EXTT15=
PLAYORDER=
